{"asset": {"version": "2.0", "generator": "thekult-gen-sized"}, "scene": 0, "scenes": [{"nodes": [0]}], "nodes": [{"mesh": 0, "name": "FramedPrint"}], "meshes": [{"name": "FramedPrint", "primitives": [{"attributes": {"POSITION": 0, "NORMAL": 1, "TEXCOORD_0": 2}, "indices": 3, "material": 0}]}], "materials": [{"name": "PrintTexture", "pbrMetallicRoughness": {"baseColorTexture": {"index": 0}, "metallicFactor": 0.0, "roughnessFactor": 0.9}, "doubleSided": true, "alphaMode": "MASK", "alphaCutoff": 0.5}], "textures": [{"sampler": 0, "source": 0}], "samplers": [{"magFilter": 9729, "minFilter": 9987, "wrapS": 33071, "wrapT": 33071}], "images": [{"uri": "https://images.squarespace-cdn.com/content/69f414bc2dc3033d8bd270b6/3875853f-1245-48d9-83ed-73af59435155/Vertical-Knot_-No-Frame.png?content-type=image%2Fpng"}], "buffers": [{"uri": "data:application/octet-stream;base64,", "byteLength": 140}], "bufferViews": [{"buffer": 0, "byteOffset": 0, "byteLength": 48, "target": 34962}, {"buffer": 0, "byteOffset": 48, "byteLength": 48, "target": 34962}, {"buffer": 0, "byteOffset": 96, "byteLength": 32, "target": 34962}, {"buffer": 0, "byteOffset": 128, "byteLength": 12, "target": 34963}], "accessors": [{"bufferView": 0, "byteOffset": 0, "componentType": 5126, "count": 4, "type": "VEC3", "min": [-0.381, -0.5715, 0], "max": [0.381, 0.5715, 0]}, {"bufferView": 1, "byteOffset": 0, "componentType": 5126, "count": 4, "type": "VEC3"}, {"bufferView": 2, "byteOffset": 0, "componentType": 5126, "count": 4, "type": "VEC2"}, {"bufferView": 3, "byteOffset": 0, "componentType": 5123, "count": 6, "type": "SCALAR"}]}
