{"asset": {"version": "2.0", "generator": "thekult-gen-depth"}, "scene": 0, "scenes": [{"nodes": [0]}], "nodes": [{"mesh": 0, "name": "FramedPrint"}], "meshes": [{"name": "FramedPrint", "primitives": [{"attributes": {"POSITION": 0, "NORMAL": 1, "TEXCOORD_0": 2}, "indices": 3, "material": 0}, {"attributes": {"POSITION": 4, "NORMAL": 5, "TEXCOORD_0": 6}, "indices": 7, "material": 1}]}], "materials": [{"name": "FrontTexture", "pbrMetallicRoughness": {"baseColorTexture": {"index": 0}, "metallicFactor": 0.0, "roughnessFactor": 0.9}, "doubleSided": false, "alphaMode": "MASK", "alphaCutoff": 0.5}, {"name": "FrameEdge", "pbrMetallicRoughness": {"baseColorFactor": [0.9, 0.9, 0.9, 1.0], "metallicFactor": 0.0, "roughnessFactor": 0.8}, "doubleSided": false}], "textures": [{"sampler": 0, "source": 0}], "samplers": [{"magFilter": 9729, "minFilter": 9987, "wrapS": 33071, "wrapT": 33071}], "images": [{"uri": "https://images.squarespace-cdn.com/content/69f414bc2dc3033d8bd270b6/3875853f-1245-48d9-83ed-73af59435155/Vertical-Knot_-No-Frame.png?content-type=image%2Fpng"}], "buffers": [{"uri": "data:application/octet-stream;base64,", "byteLength": 840}], "bufferViews": [{"buffer": 0, "byteOffset": 0, "byteLength": 288, "target": 34962}, {"buffer": 0, "byteOffset": 288, "byteLength": 288, "target": 34962}, {"buffer": 0, "byteOffset": 576, "byteLength": 192, "target": 34962}, {"buffer": 0, "byteOffset": 768, "byteLength": 72, "target": 34963}], "accessors": [{"bufferView": 0, "byteOffset": 0, "componentType": 5126, "count": 4, "type": "VEC3", "min": [-0.5, -0.5, -0.008], "max": [0.5, 0.5, 0.008]}, {"bufferView": 1, "byteOffset": 0, "componentType": 5126, "count": 4, "type": "VEC3"}, {"bufferView": 2, "byteOffset": 0, "componentType": 5126, "count": 4, "type": "VEC2"}, {"bufferView": 3, "byteOffset": 0, "componentType": 5123, "count": 6, "type": "SCALAR"}, {"bufferView": 0, "byteOffset": 48, "componentType": 5126, "count": 20, "type": "VEC3", "min": [-0.5, -0.5, -0.008], "max": [0.5, 0.5, 0.008]}, {"bufferView": 1, "byteOffset": 48, "componentType": 5126, "count": 20, "type": "VEC3"}, {"bufferView": 2, "byteOffset": 32, "componentType": 5126, "count": 20, "type": "VEC2"}, {"bufferView": 3, "byteOffset": 12, "componentType": 5123, "count": 30, "type": "SCALAR"}]}
