{"asset": {"version": "2.0", "generator": "thekult-gen-depth-fixed"}, "scene": 0, "scenes": [{"nodes": [0]}], "nodes": [{"mesh": 0, "name": "FramedPrint"}], "meshes": [{"name": "FramedPrint", "primitives": [{"attributes": {"POSITION": 0, "NORMAL": 1, "TEXCOORD_0": 2}, "indices": 3, "material": 0}, {"attributes": {"POSITION": 4, "NORMAL": 5, "TEXCOORD_0": 6}, "indices": 7, "material": 1}]}], "materials": [{"name": "FrontTexture", "pbrMetallicRoughness": {"baseColorTexture": {"index": 0}, "metallicFactor": 0.0, "roughnessFactor": 0.9}, "doubleSided": false, "alphaMode": "MASK", "alphaCutoff": 0.5}, {"name": "FrameEdge", "pbrMetallicRoughness": {"baseColorFactor": [0.94, 0.94, 0.94, 1.0], "metallicFactor": 0.0, "roughnessFactor": 0.8}, "doubleSided": false}], "textures": [{"sampler": 0, "source": 0}], "samplers": [{"magFilter": 9729, "minFilter": 9987, "wrapS": 33071, "wrapT": 33071}], "images": [{"uri": "https://images.squarespace-cdn.com/content/69f414bc2dc3033d8bd270b6/7bbed4b2-5cea-48ff-9287-1c1b9aab92d5/Vertical-Knot-White2.png?content-type=image%2Fpng"}], "buffers": [{"uri": "data:application/octet-stream;base64,", "byteLength": 840}], "bufferViews": [{"buffer": 0, "byteOffset": 0, "byteLength": 48, "target": 34962}, {"buffer": 0, "byteOffset": 48, "byteLength": 48, "target": 34962}, {"buffer": 0, "byteOffset": 96, "byteLength": 32, "target": 34962}, {"buffer": 0, "byteOffset": 128, "byteLength": 12, "target": 34963}, {"buffer": 0, "byteOffset": 140, "byteLength": 240, "target": 34962}, {"buffer": 0, "byteOffset": 380, "byteLength": 240, "target": 34962}, {"buffer": 0, "byteOffset": 620, "byteLength": 160, "target": 34962}, {"buffer": 0, "byteOffset": 780, "byteLength": 60, "target": 34963}], "accessors": [{"bufferView": 0, "byteOffset": 0, "componentType": 5126, "count": 4, "type": "VEC3", "min": [-0.5, -0.5, 0.02], "max": [0.5, 0.5, 0.02]}, {"bufferView": 1, "byteOffset": 0, "componentType": 5126, "count": 4, "type": "VEC3"}, {"bufferView": 2, "byteOffset": 0, "componentType": 5126, "count": 4, "type": "VEC2"}, {"bufferView": 3, "byteOffset": 0, "componentType": 5123, "count": 6, "type": "SCALAR"}, {"bufferView": 4, "byteOffset": 0, "componentType": 5126, "count": 20, "type": "VEC3", "min": [-0.5, -0.5, -0.02], "max": [0.5, 0.5, 0.02]}, {"bufferView": 5, "byteOffset": 0, "componentType": 5126, "count": 20, "type": "VEC3"}, {"bufferView": 6, "byteOffset": 0, "componentType": 5126, "count": 20, "type": "VEC2"}, {"bufferView": 7, "byteOffset": 0, "componentType": 5123, "count": 30, "type": "SCALAR"}]}
